<svg xmlns="http://www.w3.org/2000/svg" width="211.082" height="253.622"><defs/><path class="a" d="M105.537 138.6c16.956 0 56.822-20.406 56.822-69.3 0-6.82-.166-13.409-.728-19.634-.923-12.251-3.432-23.109-9.679-31.43C143.937 6.914 129.921 0 105.537 0s-38.4 6.911-46.409 18.231c-6.252 8.323-8.762 19.183-9.684 31.439-.562 6.224-.727 12.812-.727 19.632.002 48.898 39.868 69.298 56.82 69.298zm18.551-113.211c-1.654 4.183-2.484 6.274-4.14 10.456-10.689-3.02-18.127-3.02-28.816 0l-4.14-10.456c13.368-4.047 23.73-4.047 37.096 0zM57.172 58.7c.655 1.432 3.436 6.937 7.741 7.453 4.949.594 13.163-17.525 40.628-17.57 27.464.044 35.679 18.163 40.628 17.57 4.3-.517 7.086-6.021 7.741-7.453.133 3.509.182 7.061.182 10.6 0 23.9-10.553 38.709-19.407 46.923-11.155 10.351-23.54 14.107-29.143 14.107s-17.988-3.757-29.143-14.107C67.544 108.01 56.992 93.2 56.992 69.3c-.001-3.54.045-7.092.18-10.6z"/><path class="a" d="M211.035 209.676c-2.9-18.038-8.873-41.274-20.852-49.53-8.181-5.641-36.722-20.889-48.91-27.4l-.206-.11a3.982 3.982 0 00-4.336.38 51.78 51.78 0 01-20.786 10.039 3.981 3.981 0 00-2.858 2.475l-7.544 19.884-7.544-19.884a3.979 3.979 0 00-2.858-2.475 51.774 51.774 0 01-20.787-10.035 3.984 3.984 0 00-4.337-.38c-12.043 6.43-40.933 21.99-49.082 27.48-13.79 9.289-19.819 42.91-20.888 49.555a4 4 0 00.178 1.963c.292.825 4.853 12.638 27.662 22.137a11.332 11.332 0 015.037-3.621 11.244 11.244 0 01-6.131-16 33.332 33.332 0 0156.971-2.584h43.524a33.393 33.393 0 0127.669-14.8h.014a33.392 33.392 0 0129.264 17.291 11.246 11.246 0 01-6.088 16.016 11.314 11.314 0 015.108 3.672c22.75-9.493 27.3-21.285 27.6-22.108a4.01 4.01 0 00.18-1.965z"/><path class="a" d="M174.409 239.27l-20.97.029c-.372-.883-1.086-3.334-1.093-9.183s.7-8.3 1.067-9.19l20.964-.031a1.418 1.418 0 001.239-2.1 23.51 23.51 0 00-42.441 2.61H77.882a23.489 23.489 0 00-42.453-2.537 1.414 1.414 0 001.242 2.093l20.97-.033c.373.883 1.086 3.334 1.093 9.185s-.7 8.3-1.067 9.187l-20.964.032a1.415 1.415 0 00-1.238 2.1 23.52 23.52 0 0020.606 12.191h.034a23.505 23.505 0 0021.8-14.8h55.29a23.543 23.543 0 0021.815 14.8h.033a23.526 23.526 0 0020.606-12.256 1.414 1.414 0 00-1.242-2.094z"/><path d="M86.359 106.63s16.47 20.646 38.365 0" fill="none" stroke="#464646" stroke-linecap="round" stroke-width="7"/></svg>