<svg xmlns="http://www.w3.org/2000/svg" width="55.233" height="63.063"><path d="M17.898 46.401l-2.456-3.985-5.186.932 6.82-12.1H3.778v31.81h22.66V31.253zm37.296-30.328H40.147a18.467 18.467 0 002.362-1.43c2.676-1.917 4.1-4.346 4.092-6.757 0-1.978-.936-4.811-2.3-5.992A7.735 7.735 0 0039.207 0a10.09 10.09 0 00-5.617 1.807c-2.467 1.652-4.4 5.231-5.774 7.96l-.207.4a35.852 35.852 0 00-1.753-4.119 16.3 16.3 0 00-4.218-4.241A10.055 10.055 0 0016.026 0a7.838 7.838 0 00-5.336 2.193c-1.4 1.313-2.377 4.27-2.386 6.382a6.849 6.849 0 001.093 3.7 11.125 11.125 0 004.456 3.8H0l.031 12.65h26.014V16.073h3.17v12.65h26.018zm-40.438-3.955a6.457 6.457 0 01-2.068-1.918 4.668 4.668 0 01.676-5.181 4 4 0 012.635-1.136h.027a6.317 6.317 0 013.455 1.157c1.717 1.134 3.336 4.216 4.461 6.474a17.265 17.265 0 011.34 3.524c-5.211-.538-8.578-1.688-10.526-2.92zm17.8-2.75c.938-1.345 2.045-3.563 3.192-4.328a6.283 6.283 0 013.455-1.156h.011a3.885 3.885 0 012.521.936 3.422 3.422 0 01.972 2.339 5.767 5.767 0 01-2.478 4.328c-1.915 1.4-5.24 2.826-10.351 3.827a17.78 17.78 0 012.678-5.946zm12.45 33.929l-5.183-.88-2.447 4.032-8.433-14.992v31.606h22.545v-31.81h-13.3z" fill="#00aef0"/></svg>