<svg xmlns="http://www.w3.org/2000/svg" width="44" height="40" viewBox="0 0 44 40"><defs><style>.a{fill:#fff;}</style></defs><g transform="translate(0 -1.178)"><path class="a" d="M32.72,17.348s1.779-1.334.425-2.667-2.671.387-2.671.387L16.858,28.491s-3.189,4.056-5.614,1.6,1.626-5.534,1.626-5.534l17.854-17.6S34.89,2.442,38.807,6.3s-.692,7.974-.692,7.974L18.054,34.046S11.635,41.354,5.694,35.5,7.24,23.384,7.24,23.384L22.47,8.369s1.705-1.4.428-2.667-2.7.422-2.7.422L2.716,23.349s-6.6,7.131.77,14.391,14.607.762,14.607.762l24.02-23.677S46.919,9.6,41.189,3.95s-11.032-.913-11.032-.913L9.489,23.4S4.2,27.648,9,32.379s9.031-.557,9.031-.557Z" transform="translate(0 0)"/></g></svg>